<?xml version="1.0" encoding="UTF-8"?>
<svg version="1.1" xmlns="http://www.w3.org/2000/svg" width="512" height="512">
<path d="M0 0 C1.01790619 0.00215515 2.03581238 0.0043103 3.08456421 0.00653076 C17.69363523 0.05620146 32.02575853 0.30709809 46.375 3.3125 C47.34985352 3.51117676 48.32470703 3.70985352 49.32910156 3.91455078 C62.93959813 6.76162269 76.19266009 10.58753083 89.34375 15.08984375 C90.25003647 15.39488327 91.15632294 15.69992279 92.09007263 16.01420593 C95.375 17.3125 95.375 17.3125 98.64590454 19.22134399 C112.2535841 26.85739566 125.22153855 23.23147392 139.78530264 20.17595935 C143.31364764 19.44743004 146.85315744 18.77778803 150.39187622 18.1018219 C157.07984359 16.81565368 163.75718458 15.48143137 170.43171799 14.127451 C180.21491571 12.14491221 190.011631 10.23127491 199.80955696 8.32305241 C200.89360717 8.11187571 200.89360717 8.11187571 201.99955738 7.89643282 C203.44173793 7.61549306 204.88394228 7.33467545 206.32617104 7.05398327 C210.51521738 6.23693746 214.7008041 5.4044556 218.88393855 4.55767334 C222.10596414 3.90703856 225.33038348 3.26840596 228.55419922 2.62670898 C229.69418869 2.39129395 230.83417816 2.15587891 232.00871277 1.91333008 C246.3161042 -0.90639435 246.3161042 -0.90639435 252.375 0.3125 C255.24922588 2.39232535 256.24061635 3.57223376 256.87836456 7.08533573 C256.87987267 8.15876445 256.88138077 9.23219316 256.88293457 10.33815002 C256.89421387 11.57304672 256.90549316 12.80794342 256.91711426 14.08026123 C256.90933697 15.44616934 256.90114429 16.81207513 256.89257812 18.17797852 C256.89799948 19.61883756 256.90512223 21.05969106 256.91381836 22.50053406 C256.93206478 26.41427213 256.92497596 30.32758869 256.91230202 34.2413342 C256.90216746 38.34416408 256.91157022 42.44695811 256.91784668 46.54978943 C256.92512752 53.44740256 256.91553001 60.34484451 256.89648438 67.24243164 C256.87477506 75.19609399 256.88172171 83.14934521 256.90379 91.10299736 C256.92200391 97.94314397 256.92447137 104.78316748 256.91403532 111.62333053 C256.90782538 115.70319999 256.90689412 119.78287704 256.92018127 123.86273384 C256.9318245 127.70670741 256.92356154 131.55015774 256.90060425 135.39407539 C256.89535936 136.79721207 256.89675771 138.20039354 256.90565491 139.60351181 C256.97919003 152.3896391 254.29581422 161.35503428 246.66796875 171.609375 C243.68916771 177.83695905 247.56836711 186.16373137 249.25 192.5625 C251.94860913 203.07782552 253.99383802 213.54825514 255.375 224.3125 C255.46232895 224.97970566 255.5496579 225.64691132 255.63963318 226.33433533 C256.33587491 232.05070476 256.54956164 237.68992632 256.578125 243.4453125 C256.58518463 244.39166061 256.59224426 245.33800873 256.59951782 246.31303406 C256.82741099 285.82902112 256.82741099 285.82902112 253.375 302.3125 C253.07698486 303.77478027 253.07698486 303.77478027 252.77294922 305.26660156 C242.65232806 353.6484774 220.7358123 397.63678269 186.375 433.3125 C185.74287598 433.97185547 185.11075195 434.63121094 184.45947266 435.31054688 C175.31502521 444.79880305 166.01765991 453.5387044 155.375 461.3125 C154.22394983 462.17056152 153.07290823 463.02863451 151.921875 463.88671875 C143.73224019 469.92427396 135.22961724 475.30707302 126.375 480.3125 C125.66778809 480.7146875 124.96057617 481.116875 124.23193359 481.53125 C101.09654164 494.5566741 75.92537591 503.30551461 49.9375 508.625 C49.21860596 508.77235596 48.49971191 508.91971191 47.7590332 509.0715332 C33.08339502 511.86090125 18.55831162 512.66142619 3.64770508 512.62817383 C0.70811513 512.6250221 -2.2304558 512.64854926 -5.16992188 512.67382812 C-18.54306192 512.71848737 -31.43916711 511.51301542 -44.625 509.3125 C-46.33055054 509.03031616 -46.33055054 509.03031616 -48.07055664 508.74243164 C-50.6662622 508.27617402 -53.23774939 507.7574418 -55.8125 507.1875 C-57.20142456 506.88054199 -57.20142456 506.88054199 -58.6184082 506.56738281 C-103.06909585 496.23155661 -143.80440564 473.92342102 -176.625 442.3125 C-177.28435547 441.68037598 -177.94371094 441.04825195 -178.62304688 440.39697266 C-188.11130305 431.25252521 -196.8512044 421.95515991 -204.625 411.3125 C-205.48306152 410.16144983 -206.34113451 409.01040823 -207.19921875 407.859375 C-213.23677396 399.66974019 -218.61957302 391.16711724 -223.625 382.3125 C-224.0271875 381.60528809 -224.429375 380.89807617 -224.84375 380.16943359 C-237.8691741 357.03404164 -246.61801461 331.86287591 -251.9375 305.875 C-252.08485596 305.15610596 -252.23221191 304.43721191 -252.3840332 303.6965332 C-255.35789088 288.05024391 -255.99800362 272.57681954 -255.9375 256.6875 C-255.93534485 255.66959381 -255.9331897 254.65168762 -255.93096924 253.60293579 C-255.88129854 238.99386477 -255.63040191 224.66174147 -252.625 210.3125 C-252.42632324 209.33764648 -252.22764648 208.36279297 -252.02294922 207.35839844 C-241.90232806 158.9765226 -219.9858123 114.98821731 -185.625 79.3125 C-184.99287598 78.65314453 -184.36075195 77.99378906 -183.70947266 77.31445312 C-174.56502521 67.82619695 -165.26765991 59.0862956 -154.625 51.3125 C-153.47394983 50.45443848 -152.32290823 49.59636549 -151.171875 48.73828125 C-142.98224019 42.70072604 -134.47961724 37.31792698 -125.625 32.3125 C-124.91778809 31.9103125 -124.21057617 31.508125 -123.48193359 31.09375 C-100.34654164 18.0683259 -75.17537591 9.31948539 -49.1875 4 C-48.46860596 3.85264404 -47.74971191 3.70528809 -47.0090332 3.5534668 C-31.36274391 0.57960912 -15.88931954 -0.06050362 0 0 Z M218.19091797 52.23046875 C216.56946365 52.53078003 216.56946365 52.53078003 214.91525269 52.8371582 C213.74439117 53.055896 212.57352966 53.27463379 211.3671875 53.5 C209.5735527 53.83294067 209.5735527 53.83294067 207.74368286 54.17260742 C203.91214186 54.88423069 200.08106864 55.59833857 196.25 56.3125 C193.65758244 56.79443414 191.0651349 57.27620709 188.47265625 57.7578125 C182.10642143 58.94083575 175.74056926 60.12590104 169.375 61.3125 C171.07943362 64.95297111 173.08894663 67.21847628 175.99609375 70.0234375 C176.92679687 70.93206543 177.8575 71.84069336 178.81640625 72.77685547 C179.30641113 73.25233826 179.79641602 73.72782104 180.30126953 74.2177124 C194.02823473 87.56823942 194.02823473 87.56823942 199.875 95.1875 C200.30345215 95.73929932 200.7319043 96.29109863 201.17333984 96.85961914 C202.89466842 99.13285351 204.40532888 101.37078419 205.72265625 103.90234375 C207.14067375 106.49672303 207.90484694 107.64416819 210.375 109.3125 C213.43681156 109.85450795 216.48582325 109.93320272 219.58984375 110.01171875 C220.43285034 110.04503296 221.27585693 110.07834717 222.14440918 110.1126709 C224.22079566 110.19278634 226.29787989 110.25443683 228.375 110.3125 C228.44449924 103.06288346 228.49781062 95.8133387 228.53043652 88.56345654 C228.54609511 85.19705123 228.56733621 81.83087377 228.60131836 78.46459961 C228.63761749 74.59482751 228.6547075 70.72537974 228.66796875 66.85546875 C228.68345261 65.64602097 228.69893646 64.43657318 228.71488953 63.19047546 C228.71522942 61.50907219 228.71522942 61.50907219 228.71557617 59.79370117 C228.72223801 58.80552902 228.72889984 57.81735687 228.73576355 56.79924011 C228.57261871 54.26496588 228.57261871 54.26496588 226.97871399 52.46992493 C224.19165734 50.4584635 221.4130815 51.63099647 218.19091797 52.23046875 Z M-24.625 216.3125 C-26.6199449 219.06583533 -27.79596753 222.01265991 -29.01953125 225.171875 C-29.37842941 226.03508362 -29.73732758 226.89829224 -30.10710144 227.78765869 C-31.24281797 230.53625489 -32.34027936 233.29834337 -33.4375 236.0625 C-34.19221184 237.90465132 -34.94935125 239.74581007 -35.70898438 241.5859375 C-43.777454 258.13286225 -43.777454 258.13286225 -42.75 275.53125 C-36.23193293 288.38632673 -25.62332084 297.0482183 -12.125 301.56640625 C-0.78730243 304.95000037 11.50990072 303.59477162 22.0625 298.1875 C34.2594188 290.69895059 42.7953269 280.20679818 46.375 266.3125 C48.49379576 254.80424633 47.21887125 242.55137384 40.9453125 232.46484375 C32.00453476 220.21019566 21.98718212 213.04477815 7.1875 209.5625 C-3.45828173 208.61620829 -15.69565136 209.864721 -24.625 216.3125 Z " fill="#3E3F3E" transform="translate(255.625,-0.3125)"/>
<path d="M0 0 C2.18351008 2.99452956 2.21903438 4.69161656 2.22421551 8.37940788 C2.24113445 10.23175293 2.24113445 10.23175293 2.2583952 12.12151909 C2.25061791 13.4874272 2.24242523 14.85333299 2.23385906 16.21923637 C2.23928042 17.66009542 2.24640316 19.10094892 2.2550993 20.54179192 C2.27334572 24.45552999 2.26625689 28.36884655 2.25358295 32.28259206 C2.2434484 36.38542194 2.25285116 40.48821597 2.25912762 44.59104729 C2.26640846 51.48866042 2.25681095 58.38610236 2.23776531 65.2836895 C2.21605599 73.23735184 2.22300265 81.19060307 2.24507093 89.14425522 C2.26328485 95.98440183 2.26575231 102.82442534 2.25531626 109.66458839 C2.24910632 113.74445785 2.24817505 117.8241349 2.26146221 121.9039917 C2.27310544 125.74796527 2.26484247 129.5914156 2.24188519 133.43533325 C2.23664029 134.83846993 2.23803864 136.24165139 2.24693584 137.64476967 C2.32432046 151.10023941 -0.99429206 161.64658132 -9.28371906 172.35375786 C-12.15871906 174.60375786 -12.15871906 174.60375786 -15.28371906 176.35375786 C-16.68876085 177.4882808 -18.08368416 178.63538953 -19.47121906 179.79125786 C-30.58232769 188.49340344 -43.3537312 191.61576364 -57.28371906 190.35375786 C-66.988274 188.49520204 -75.08588498 184.98102683 -81.09621906 176.92407036 C-86.71354285 168.03897648 -88.26090979 159.79748375 -87.28371906 149.35375786 C-83.81674212 134.56000965 -74.54267586 123.17661447 -61.97121906 115.04125786 C-49.86536101 108.02154155 -42.11162963 107.35375786 -27.28371906 107.35375786 C-27.28371906 88.54375786 -27.28371906 69.73375786 -27.28371906 50.35375786 C-34.97062877 51.07058104 -34.97062877 51.07058104 -42.50784016 52.2458477 C-43.40352711 52.41627586 -44.29921406 52.58670403 -45.22204304 52.76229668 C-46.1576305 52.94458824 -47.09321796 53.12687981 -48.05715656 53.31469536 C-49.06098377 53.50592979 -50.06481098 53.69716423 -51.0990572 53.89419365 C-54.28641581 54.50159636 -57.472673 55.11451027 -60.65871906 55.72875786 C-73.2966206 58.16370842 -85.91395396 60.53004385 -98.65304279 62.37519646 C-104.44495625 63.21523046 -110.18498073 64.18757551 -115.90871906 65.41625786 C-116.70793781 65.57674614 -117.50715656 65.73723442 -118.33059406 65.90258598 C-122.74295274 66.75120977 -122.74295274 66.75120977 -126.28371906 69.35375786 C-126.58557545 71.32378065 -126.58557545 71.32378065 -126.53527546 73.61361504 C-126.5406583 74.50775108 -126.54604115 75.40188713 -126.5515871 76.32311821 C-126.54540112 77.79887321 -126.54540112 77.79887321 -126.53909016 79.30444145 C-126.54271061 80.33884361 -126.54633106 81.37324577 -126.55006123 82.43899345 C-126.55696998 84.69251814 -126.55945791 86.94605962 -126.55811405 89.1995945 C-126.55715077 92.77369067 -126.57007092 96.34748441 -126.58709431 99.9215374 C-126.63340553 110.08625696 -126.65794407 120.25094825 -126.66457844 130.41576958 C-126.66961268 136.62980245 -126.6939691 142.84352404 -126.72990513 149.05745125 C-126.73966775 151.41993777 -126.74205453 153.78246733 -126.73673344 156.14496803 C-126.68847738 178.64266343 -126.68847738 178.64266343 -130.51922321 187.17080498 C-131.97187307 191.31872309 -130.01759975 194.56089385 -128.28371906 198.35375786 C-127.45393798 200.59744224 -126.64291471 202.84811332 -125.84621906 205.10375786 C-125.20426594 206.90200005 -125.20426594 206.90200005 -124.54934406 208.73657036 C-123.35860805 212.13972329 -122.19924879 215.5461952 -121.09621906 218.97875786 C-120.79328938 219.91977348 -120.49035969 220.86078911 -120.17825031 221.83032036 C-117.47545249 232.47627508 -116.87609203 242.92808364 -116.90871906 253.85375786 C-116.90992756 254.60353905 -116.91113605 255.35332024 -116.91238117 256.12582207 C-117.07260312 292.8308149 -131.82879 326.81185762 -157.72170734 352.82641411 C-184.67050125 379.17709474 -220.27505261 391.9204529 -257.66213703 391.70971489 C-272.06334886 391.41995633 -285.60204691 388.86840359 -299.28371906 384.35375786 C-299.92019367 384.1438018 -300.55666828 383.93384575 -301.21243 383.71752739 C-334.36173872 372.57877724 -361.78978222 347.48692291 -377.53371906 316.41625786 C-381.3450231 308.59509513 -384.70881851 300.66894423 -387.28371906 292.35375786 C-387.49544758 291.67587212 -387.70717609 290.99798637 -387.92532063 290.29955864 C-397.79702069 256.68728036 -391.68438719 217.99918404 -375.32864094 187.5974102 C-356.78086562 154.67787459 -325.8741816 131.18613294 -289.78371906 120.66625786 C-278.15255485 117.75680045 -266.65738568 116.94587448 -254.72121906 116.97875786 C-253.60228764 116.97957359 -253.60228764 116.97957359 -252.46075153 116.98040581 C-240.36131196 117.02085322 -228.94092839 117.87486323 -217.28371906 121.35375786 C-216.55491535 121.5680645 -215.82611164 121.78237114 -215.07522297 122.00317192 C-203.31887053 125.57294612 -191.53157284 130.52185534 -181.28371906 137.35375786 C-179.19758053 137.37559757 -179.19758053 137.37559757 -176.90871906 136.97875786 C-169.47409735 136.06036341 -161.57584845 135.38349376 -154.28371906 137.35375786 C-154.28740623 136.79568821 -154.29109341 136.23761856 -154.29489231 135.66263771 C-154.3832292 122.08365057 -154.44916632 108.50471377 -154.49096775 94.92550087 C-154.51186102 88.35867179 -154.54021102 81.79204978 -154.58547688 75.22533989 C-154.62887165 68.89057436 -154.65284306 62.55600825 -154.66322803 56.22110558 C-154.67063079 53.80171633 -154.68508623 51.38233825 -154.70663929 48.96303368 C-154.73558772 45.57968694 -154.73967853 42.19716903 -154.73782063 38.8137188 C-154.75220173 37.8088694 -154.76658283 36.80402 -154.78139973 35.76872063 C-154.74220963 29.19285932 -154.74220963 29.19285932 -152.91676044 25.85203362 C-148.74635684 23.47895484 -144.38790346 22.78282638 -139.70095539 21.92138481 C-138.638276 21.71352757 -137.5755966 21.50567034 -136.4807148 21.2915144 C-133.08435159 20.63095578 -129.68434942 19.99194243 -126.28371906 19.35375786 C-124.13660256 18.93958465 -121.98973731 18.52410661 -119.84313679 18.10726738 C-113.10257815 16.80453216 -106.35592539 15.53533951 -99.60793781 14.27172661 C-98.39699766 14.04462816 -97.18605751 13.81752972 -95.9384222 13.5835495 C-89.55903476 12.38754235 -83.17906812 11.19468284 -76.79861164 10.00439262 C-71.55597062 9.02579253 -66.31446935 8.04142154 -61.07400227 7.05126762 C-54.68077165 5.84363138 -48.28578931 4.64573532 -41.88941097 3.45488739 C-39.47241695 3.00330592 -37.0560385 2.54841587 -34.64032269 2.09004593 C-31.27011586 1.45137566 -27.89778851 0.82531522 -24.52468586 0.20214653 C-23.54530552 0.01363625 -22.56592518 -0.17487404 -21.55686665 -0.36909676 C-4.75400267 -3.42697123 -4.75400267 -3.42697123 0 0 Z M-279.28371906 214.35375786 C-281.27866397 217.10709319 -282.45468659 220.05391777 -283.67825031 223.21313286 C-284.03714848 224.07634148 -284.39604664 224.93955009 -284.7658205 225.82891655 C-285.90153703 228.57751275 -286.99899843 231.33960123 -288.09621906 234.10375786 C-288.8509309 235.94590918 -289.60807031 237.78706793 -290.36770344 239.62719536 C-298.43617307 256.17412011 -298.43617307 256.17412011 -297.40871906 273.57250786 C-290.89065199 286.42758459 -280.28203991 295.08947616 -266.78371906 299.60766411 C-255.44602149 302.99125823 -243.14881834 301.63602947 -232.59621906 296.22875786 C-220.39930027 288.74020845 -211.86339217 278.24805604 -208.28371906 264.35375786 C-206.1649233 252.84550419 -207.43984781 240.5926317 -213.71340656 230.50610161 C-222.6541843 218.25145352 -232.67153694 211.086036 -247.47121906 207.60375786 C-258.1170008 206.65746615 -270.35437042 207.90597886 -279.28371906 214.35375786 Z " fill="#8EC068" transform="translate(510.2837190628052,1.6462421417236328)"/>
<path d="M0 0 C2.73030578 4.98577578 2.02806495 9.99698599 0.8125 15.40625 C-1.97532655 24.26755581 -6.83269837 30.75186737 -15.01953125 35.2109375 C-21.00641989 38.0852178 -27.11884031 39.2431637 -33.625 40.375 C-35.86643459 40.78345611 -38.10735423 41.19475194 -40.34765625 41.609375 C-41.32613525 41.78178711 -42.30461426 41.95419922 -43.31274414 42.13183594 C-45.52130381 42.40403772 -45.52130381 42.40403772 -46.5625 43.625 C-46.66103999 46.20350334 -46.69550211 48.7559775 -46.68847656 51.33496094 C-46.6903447 52.14327866 -46.69221283 52.95159637 -46.69413757 53.78440857 C-46.69815308 55.54794749 -46.70021746 57.31149165 -46.70059967 59.0750351 C-46.70401193 62.83727804 -46.72538381 66.5993477 -46.74583054 70.3615303 C-46.78380955 77.36880811 -46.81513004 84.37590842 -46.81298828 91.38330078 C-46.81219586 96.25415106 -46.83580038 101.12437688 -46.8748703 105.99506378 C-46.88526219 107.84315423 -46.88690511 109.6913174 -46.87921906 111.53942108 C-46.82690281 125.52945426 -48.23139169 136.78281741 -57.1328125 148.234375 C-58.5625 149.625 -58.5625 149.625 -61.5625 150.625 C-61.8925 151.615 -62.2225 152.605 -62.5625 153.625 C-73.11334483 161.80190474 -84.53151556 163.73764056 -97.5625 162.625 C-105.79529807 161.03432883 -110.87360322 156.4165915 -115.5625 149.625 C-119.57645141 142.54314634 -119.4411145 135.27205869 -117.375 127.5625 C-115.78796341 122.74150205 -113.50283467 118.73961927 -110.5625 114.625 C-109.964375 113.75875 -109.36625 112.8925 -108.75 112 C-102.22360652 104.91420137 -93.08653863 99.46114228 -83.5625 97.625 C-81.1467094 97.55668013 -78.72915287 97.54012358 -76.3125 97.5625 C-74.41757813 97.57603516 -74.41757813 97.57603516 -72.484375 97.58984375 C-71.03804687 97.60724609 -71.03804687 97.60724609 -69.5625 97.625 C-69.57138245 96.56899597 -69.58026489 95.51299194 -69.5894165 94.42498779 C-69.67046681 84.47818038 -69.73044832 74.53143987 -69.76974869 64.58437729 C-69.79063264 59.4703369 -69.81896516 54.35656287 -69.86425781 49.24267578 C-69.90768655 44.30841704 -69.93163102 39.37441465 -69.94200897 34.43997955 C-69.94940568 32.55646986 -69.96384961 30.67297436 -69.98542023 28.78957367 C-70.01441492 26.15335152 -70.01845769 23.51819162 -70.01660156 20.88183594 C-70.03098267 20.10140427 -70.04536377 19.3209726 -70.06018066 18.51689148 C-70.03385404 15.06629549 -69.84510244 13.01795621 -67.80502319 10.1812439 C-65.48631136 8.57212737 -63.98901416 7.94120039 -61.22802734 7.46826172 C-60.3796933 7.31485321 -59.53135925 7.1614447 -58.65731812 7.00338745 C-57.74688751 6.85531647 -56.83645691 6.70724548 -55.8984375 6.5546875 C-54.95118805 6.38752228 -54.0039386 6.22035706 -53.02798462 6.04812622 C-50.00020299 5.51710297 -46.96920519 5.00809356 -43.9375 4.5 C-41.9203152 4.15122684 -39.90338431 3.80098177 -37.88671875 3.44921875 C-35.02578104 2.95041281 -32.16469201 2.45360814 -29.30136108 1.96871948 C-24.12950583 1.09145896 -18.98997232 0.1251008 -13.85830688 -0.96432495 C-8.95642717 -1.84117557 -4.47651183 -2.40203074 0 0 Z " fill="#90C16B" transform="translate(153.5625,103.375)"/>
<path d="M0 0 C0.66 0.66 1.32 1.32 2 2 C-3.94 16.52 -9.88 31.04 -16 46 C-18 45 -18 45 -19 42 C-19.8431587 30.61735755 -16.62044725 19.28227656 -10 10 C-6.83102157 6.47575493 -3.502558 3.19106568 0 0 Z " fill="#464645" transform="translate(228,218)"/>
<path d="M0 0 C0.33 0 0.66 0 1 0 C1 9.57 1 19.14 1 29 C-2.96 29 -6.92 29 -11 29 C-7.82539269 19.08344313 -4.65253377 9.3462404 0 0 Z " fill="#2A2A2A" transform="translate(83,172)"/>
<path d="M0 0 C2 3 2 3 1.6796875 4.91015625 C1.41414062 5.62042969 1.14859375 6.33070313 0.875 7.0625 C0.58753906 7.84625 0.30007812 8.63 0.00390625 9.4375 C-0.32738281 10.283125 -0.65867188 11.12875 -1 12 C-1.36222656 12.928125 -1.72445312 13.85625 -2.09765625 14.8125 C-3.04976393 17.21495093 -4.01706684 19.61002547 -5 22 C-5.66 21.67 -6.32 21.34 -7 21 C-6.125 14.25 -6.125 14.25 -5 12 C-5.66 11.67 -6.32 11.34 -7 11 C-6.54625 10.62875 -6.0925 10.2575 -5.625 9.875 C-3.52970606 7.45735315 -2.87986715 5.04569398 -2 2 C-1.34 2 -0.68 2 0 2 C0 1.34 0 0.68 0 0 Z " fill="#454545" transform="translate(217,242)"/>
<path d="M0 0 C2.03420245 3.05130368 2.75473304 4.40275127 3 8 C2.19708955 10.47564057 1.15134732 12.65125148 0 15 C-0.33 15 -0.66 15 -1 15 C-1.02693575 12.87506859 -1.04636628 10.75004088 -1.0625 8.625 C-1.07410156 7.44164062 -1.08570313 6.25828125 -1.09765625 5.0390625 C-1 2 -1 2 0 0 Z " fill="#373737" transform="translate(221,227)"/>
<path d="M0 0 C0.66 0.66 1.32 1.32 2 2 C0.68 5.3 -0.64 8.6 -2 12 C-2.66 11.34 -3.32 10.68 -4 10 C-3.66302652 3.82215289 -3.66302652 3.82215289 -1.4375 1.0625 C-0.7259375 0.5365625 -0.7259375 0.5365625 0 0 Z " fill="#393A39" transform="translate(228,218)"/>
<path d="M0 0 C0.66 0.99 1.32 1.98 2 3 C1.5390625 5.26171875 1.5390625 5.26171875 0.625 7.6875 C0.18027344 8.89986328 0.18027344 8.89986328 -0.2734375 10.13671875 C-0.51320312 10.75160156 -0.75296875 11.36648437 -1 12 C-1.33 12 -1.66 12 -2 12 C-2.17835515 7.45194365 -1.99785435 4.1205746 0 0 Z " fill="#343434" transform="translate(217,242)"/>
<path d="M0 0 C0.66 0.99 1.32 1.98 2 3 C1.125 6.6875 1.125 6.6875 0 10 C-0.66 9.67 -1.32 9.34 -2 9 C-1.125 2.25 -1.125 2.25 0 0 Z " fill="#353535" transform="translate(212,254)"/>
</svg>
